<svg width="160" height="40" viewBox="0 0 160 40" fill="none" xmlns="http://www.w3.org/2000/svg">
    <rect x="2.22221" y="3.7037" width="28.1481" height="24.4444" rx="4.81481" fill="white"/>
    <path d="M33.2387 9.79592V23.0612C33.2387 28.4694 28.8 32.8571 23.329 32.8571H9.90968C4.43871 32.8571 0 28.4694 0 23.0612V9.79592C0 4.38776 4.43871 0 9.90968 0H23.329C28.8 0 33.2387 4.38776 33.2387 9.79592ZM27.0452 20.4082V20.5102C27.0452 21.1224 26.6323 21.6327 26.0129 21.6327C25.6 21.6327 25.1871 21.5306 24.8774 21.1224C24.5677 20.7143 24.1548 20.2041 23.8452 19.2857C24.7742 16.1224 27.6645 6.12245 27.6645 6.12245H22.1935C22.1935 6.12245 21.6774 8.46939 21.2645 10.6122V10.5102C20.8516 9.59184 20.129 8.46939 19.3032 7.7551C17.8581 6.42857 16.2065 5.81633 14.2452 5.81633C11.4581 5.81633 9.1871 6.83673 7.32903 8.77551C5.47097 10.7143 4.54194 13.2653 4.54194 16.1224C4.54194 19.2857 5.47097 21.8367 7.32903 23.7755C9.1871 25.8163 11.4581 26.7347 14.4516 26.7347C16.2065 26.7347 17.8581 26.2245 19.3032 25.2041C20.2323 24.5918 21.1613 23.6735 22.0903 22.449C22.4 23.5714 22.8129 24.3878 23.2258 25C23.9484 25.9184 24.9806 26.5306 26.1161 26.5306C27.2516 26.5306 28.3871 25.9184 28.9032 25C29.4194 24.1837 29.6258 23.1633 29.6258 21.3265V20.3061L27.0452 20.4082ZM17.9613 22.449C17.1355 23.6735 16.1032 24.2857 14.8645 24.2857C13.4194 24.2857 12.3871 23.6735 11.5613 22.3469C10.7355 21.0204 10.3226 18.9796 10.3226 16.3265C10.3226 13.8776 10.7355 11.9388 11.6645 10.6122C12.4903 9.28571 13.5226 8.77551 14.8645 8.77551C16.1032 8.77551 17.0323 9.28571 17.8581 10.4082C18.7871 11.5306 19.5097 13.4694 20.0258 16.0204C19.5097 19.2857 18.7871 21.2245 17.9613 22.449ZM49.8581 6.73469C49.4452 5 48.4129 3.87755 46.0387 3.87755C43.871 3.87755 42.6323 5 42.2194 6.73469L40.5677 14.2857H42.4258C42.8387 14.2857 43.2516 13.9796 43.3548 13.5714L43.6645 12.0408H48.5161L48.8258 13.5714C48.929 13.9796 49.3419 14.2857 49.7548 14.2857H51.6129L49.8581 6.73469ZM44.1806 10L44.8 7.2449C44.8 6.83673 45.2129 6.12245 46.0387 6.12245C46.9677 6.12245 47.2774 6.83673 47.3806 7.2449L48 10H44.1806ZM56.0516 6.42857V10.9184C56.0516 13.0612 54.8129 14.3878 53.0581 14.3878H52.6452L52.129 12.2449L52.6452 12.1429C53.1613 12.0408 53.5742 11.6327 53.5742 10.9184V5.61224C53.5742 4.79592 54.2968 4.08163 55.1226 4.08163H62.6581V14.2857H60.1806V6.42857H56.0516ZM84.5419 4.18367H83.6129V2.95918H81.8581C81.4452 2.95918 81.1355 3.26531 81.1355 3.67347V4.08163H80.2065C77.1097 4.08163 75.1484 6.12245 75.1484 9.18367C75.1484 12.1429 77.1097 14.2857 80.2065 14.2857H81.1355V15.5102H82.8903C83.3032 15.5102 83.6129 15.2041 83.6129 14.7959V14.2857H84.5419C87.6387 14.2857 89.6 12.2449 89.6 9.18367C89.6 6.32653 87.6387 4.18367 84.5419 4.18367ZM80.2065 12.1429C78.4516 12.1429 77.6258 11.1224 77.6258 9.28571C77.6258 7.44898 78.4516 6.42857 80.2065 6.42857H81.1355V12.1429H80.2065ZM84.5419 12.1429H83.6129V6.42857H84.5419C86.2968 6.42857 87.1226 7.44898 87.1226 9.28571C87.1226 11.0204 86.2968 12.1429 84.5419 12.1429ZM70.5032 6.73469H66.8903V4.18367H64.3097V13.6735C64.3097 14.0816 64.6194 14.3878 65.0323 14.3878H70.4C72.5677 14.3878 74.2194 12.7551 74.2194 10.6122C74.3226 8.36735 72.9807 6.73469 70.5032 6.73469ZM70.5032 12.0408H66.8903V8.97959H70.5032C71.1226 8.97959 71.8452 9.4898 71.8452 10.5102C71.8452 11.5306 71.1226 12.0408 70.5032 12.0408ZM98.9936 6.73469C98.5806 5 97.5484 3.87755 95.1742 3.87755C93.0065 3.87755 91.7677 5 91.3548 6.73469L89.6 14.2857H91.4581C91.871 14.2857 92.2839 13.9796 92.3871 13.5714L92.6968 12.0408H97.5484L97.8581 13.5714C97.9613 13.9796 98.3742 14.2857 98.7871 14.2857H100.645L98.9936 6.73469ZM93.3161 10L93.9355 7.2449C93.9355 6.83673 94.3484 6.12245 95.1742 6.12245C96 6.12245 96.4129 6.83673 96.5161 7.2449L97.1355 10H93.3161ZM113.652 23.3673C114.065 22.9592 114.374 22.3469 114.374 21.5306C114.374 19.6939 112.929 18.4694 111.174 18.4694H104.981C104.568 18.4694 104.258 18.7755 104.258 19.1837V27.8571C104.258 28.2653 104.568 28.5714 104.981 28.5714H111.484C113.342 28.5714 114.684 27.2449 114.684 25.4082C114.684 24.5918 114.271 23.8776 113.652 23.3673ZM111.071 20.6122C111.381 20.6122 111.897 21.0204 111.897 21.6327C111.897 22.2449 111.484 22.551 111.071 22.6531H106.632V20.6122H111.071ZM111.277 26.6327H106.632V24.5918H111.277C111.587 24.5918 112.103 25 112.103 25.6122C112.103 26.2245 111.587 26.6327 111.277 26.6327ZM96.929 18.2653C93.8323 18.2653 91.6645 20.4082 91.6645 23.5714C91.6645 26.7347 93.8323 28.8775 96.929 28.8775H97.8581C100.955 28.8775 103.123 26.7347 103.123 23.5714C103.123 20.4082 100.955 18.2653 97.8581 18.2653H96.929ZM94.4516 23.5714C94.4516 21.7347 95.3806 20.3061 97.2387 20.3061H97.7548C99.5097 20.3061 100.542 21.7347 100.542 23.5714C100.542 25.4082 99.6129 26.8367 97.7548 26.8367H97.2387C95.3806 26.8367 94.4516 25.4082 94.4516 23.5714ZM49.9613 18.4694H59.5613L59.2516 20C59.1484 20.4082 58.7355 20.7143 58.3226 20.7143H56.0516V28.6735H53.471V20.7143H51.0968C50.6839 20.7143 50.271 20.4082 50.1677 20L49.9613 18.4694ZM134.916 18.4694H137.497V28.6735H134.916V24.6939H130.065V28.6735H127.484V18.4694H130.065V22.551H134.916V18.4694ZM79.2774 21.1224C78.8645 19.3878 77.8323 18.2653 75.4581 18.2653C73.2903 18.2653 72.0516 19.3878 71.6387 21.1224L69.8839 28.6735H71.7419C72.1548 28.6735 72.5677 28.3673 72.671 27.9592L72.9806 26.4286H77.8323L78.1419 27.9592C78.2452 28.3673 78.6581 28.6735 79.071 28.6735H80.929L79.2774 21.1224ZM73.4968 24.2857L74.1161 21.5306C74.2194 21.1224 74.529 20.4082 75.4581 20.4082C76.3871 20.4082 76.6968 21.1224 76.8 21.5306L77.4194 24.2857H73.4968ZM124.594 21.1224C124.181 19.3878 123.148 18.2653 120.774 18.2653C118.606 18.2653 117.368 19.3878 116.955 21.1224L115.2 28.6735H117.058C117.471 28.6735 117.884 28.3673 117.987 27.9592L118.297 26.4286H123.148L123.458 27.9592C123.561 28.3673 123.974 28.6735 124.387 28.6735H126.245L124.594 21.1224ZM118.916 24.2857L119.535 21.5306C119.639 21.1224 119.948 20.4082 120.877 20.4082C121.806 20.4082 122.116 21.1224 122.219 21.5306L122.839 24.2857H118.916ZM50.7871 28.6735H45.8323C42.8387 28.6735 40.7742 26.6327 40.7742 23.5714C40.7742 20.6122 42.8387 18.4694 45.8323 18.4694H49.5484L49.2387 20C49.1355 20.4082 48.7226 20.7143 48.3097 20.7143H45.8323C44.1806 20.7143 43.2516 21.8367 43.2516 23.4694C43.2516 25.102 44.1806 26.2245 45.8323 26.2245H49.4452C49.8581 26.2245 50.271 26.5306 50.3742 26.9388L50.7871 28.6735ZM66.3742 18.4694H61.0065C60.5936 18.4694 60.2839 18.7755 60.2839 19.1837V28.6735H62.8645V26.0204H66.4774C68.9548 26.0204 70.2968 24.3878 70.2968 22.2449C70.1936 20.102 68.5419 18.4694 66.3742 18.4694ZM66.3742 23.8776H62.7613V20.8163H66.3742C66.9936 20.8163 67.7161 21.3265 67.7161 22.3469C67.7161 23.3673 66.9936 23.8776 66.3742 23.8776ZM158.761 26.5306C159.174 26.5306 159.587 26.7347 159.69 27.2449L160 28.6735H151.535C151.123 28.6735 150.813 28.3673 150.813 27.9592V19.2857C150.813 18.8775 151.123 18.5714 151.535 18.5714H160L159.69 20C159.587 20.5102 159.174 20.7143 158.761 20.7143H153.29V22.6531H159.174V24.5918H153.29V26.5306H158.761ZM139.148 28.6735V18.4694H141.729V25.2041L146.065 19.0816C146.271 18.7755 146.89 18.4694 147.303 18.4694H149.161V28.6735H146.581V21.9388L142.245 28.0612C142.039 28.3673 141.419 28.6735 141.006 28.6735H139.148ZM88.5677 23.5714L92.1806 28.7755H89.8065C89.2903 28.7755 88.9807 28.6735 88.671 28.1633L86.7097 25.2041H86.4L84.5419 28.0612C84.2323 28.5714 83.9226 28.6735 83.4065 28.6735H81.1355L84.6452 23.6735L81.0323 18.4694H83.4065C83.9226 18.4694 84.2323 18.5714 84.5419 19.0816L86.4 21.9388H86.7097L88.5677 19.0816C88.8774 18.5714 89.2903 18.4694 89.7032 18.4694H91.9742L88.5677 23.5714ZM40.9806 36.5306C40.9806 35.2041 41.9097 33.9796 43.4581 33.9796C44.0774 33.9796 44.4903 34.0816 44.9032 34.3878L44.5935 34.898C44.2839 34.6939 43.9742 34.5918 43.5613 34.5918C42.4258 34.5918 41.8065 35.5102 41.8065 36.5306C41.8065 37.551 42.4258 38.4694 43.5613 38.4694C44.0774 38.4694 44.4903 38.2653 44.6968 38.0612L45.0065 38.5714C44.8 38.7755 44.1806 39.0816 43.4581 39.0816C41.8065 38.9796 40.9806 37.7551 40.9806 36.5306ZM45.8323 34.0816H48.4129V34.6939H46.4516V36.1225H48.2065V36.6327H46.4516V38.3673H48.5161V38.9796H45.8323V34.0816ZM49.6516 34.0816H50.9936C52.0258 34.0816 52.7484 34.5918 52.7484 35.5102C52.7484 36.4286 52.0258 37.0408 50.8903 37.0408H50.3742V38.9796H49.6516V34.0816ZM50.8903 36.4286C51.7161 36.4286 52.0258 36.1224 52.0258 35.5102C52.0258 35 51.7161 34.5918 50.8903 34.5918H50.271V36.4286H50.8903ZM53.6774 34.0816H55.0194C55.9484 34.0816 56.671 34.3878 56.671 35.3061C56.671 35.9184 56.3613 36.2245 55.7419 36.3265C56.3613 36.4286 56.7742 36.8367 56.7742 37.551C56.7742 38.5714 55.9484 38.8775 54.9161 38.8775H53.6774V34.0816ZM55.0194 36.1225C55.7419 36.1225 56.0516 35.9184 56.0516 35.3061C56.0516 34.7959 55.7419 34.5918 55.0194 34.5918H54.4V36.1225H55.0194ZM55.0194 38.4694C55.8452 38.4694 56.1548 38.2653 56.1548 37.6531C56.1548 37.0408 55.9484 36.7347 55.0194 36.7347H54.2968V38.4694H55.0194ZM58.0129 34.0816H58.6323V37.3469C58.6323 37.7551 58.6323 37.9592 58.6323 38.0612C58.7355 37.9592 58.8387 37.6531 59.1484 37.3469L61.3161 34.1837H61.9355V39.0816H61.3161V35.6122C61.3161 35.4082 61.3161 35.102 61.3161 35C61.2129 35.102 61.1097 35.4082 60.9032 35.6122L58.529 38.9796H57.9097L58.0129 34.0816ZM63.071 36.5306C63.071 35.2041 64 33.9796 65.5484 33.9796C66.1677 33.9796 66.5807 34.0816 66.9936 34.3878L66.6839 34.898C66.3742 34.6939 66.0645 34.5918 65.6516 34.5918C64.5161 34.5918 63.8968 35.5102 63.8968 36.5306C63.8968 37.551 64.5161 38.4694 65.6516 38.4694C66.1677 38.4694 66.5806 38.2653 66.7871 38.0612L67.0968 38.5714C66.8903 38.7755 66.271 39.0816 65.5484 39.0816C63.8968 38.9796 63.071 37.7551 63.071 36.5306ZM69.5742 34.0816H72.3613V34.6939H70.2968V36.1225H71.1226C72.1548 36.1225 72.8774 36.6327 72.8774 37.551C72.8774 38.4694 72.1548 39.0816 71.0194 39.0816H69.6774V34.0816H69.5742ZM70.9161 38.3673C71.7419 38.3673 72.0516 38.0612 72.0516 37.449C72.0516 36.9388 71.7419 36.5306 70.9161 36.5306H70.1936V38.3673H70.9161ZM73.6 38.8775L73.7032 38.3673C73.7032 38.3673 73.8065 38.3673 73.9097 38.3673C74.3226 38.3673 74.529 38.1633 74.8387 37.551L74.9419 37.2449L73.4968 33.8775H74.1161L75.2516 36.5306L76.3871 33.8775H77.0065L75.2516 37.7551C74.9419 38.5714 74.529 38.7755 73.8065 38.7755C73.8065 38.9796 73.7032 38.9796 73.6 38.8775ZM77.0065 38.3673H77.4194C77.8323 38.0612 77.9355 37.551 78.0387 36.5306L78.2452 33.9796H81.1355V38.2653H81.6516L81.5484 40H81.1355V38.9796H77.8323L77.729 40H77.3161L77.0065 38.3673ZM80.5161 38.3673V34.5918H78.9677L78.7613 36.6327C78.6581 37.551 78.4516 38.0612 78.2452 38.3673H80.5161ZM82.4774 38.8775L82.5806 38.3673C82.5806 38.3673 82.6839 38.3673 82.7871 38.3673C83.2 38.3673 83.4065 38.1633 83.7161 37.551L83.8194 37.2449L82.3742 33.8775H82.9936L84.129 36.5306L85.2645 33.8775H85.8839L84.129 37.7551C83.8194 38.5714 83.4065 38.7755 82.6839 38.7755C82.6839 38.9796 82.5807 38.9796 82.4774 38.8775ZM92.6968 38.9796H86.8129V34.0816H87.5355V38.3673H89.4968V34.0816H90.2194V38.3673H92.1806V34.0816H92.9032V38.3673H93.4194L93.3161 40H92.9032L92.6968 38.9796ZM94.3484 34.0816H96.929V34.6939H94.9677V36.1225H96.7226V36.6327H94.9677V38.3673H97.0323V38.9796H94.3484V34.0816ZM98.1677 34.0816H100.852V34.5918H98.8903V38.9796H98.1677V34.0816V34.0816ZM101.161 36.5306C101.161 35.2041 102.09 33.9796 103.639 33.9796C105.187 33.9796 106.116 35.102 106.116 36.5306C106.116 37.9592 105.187 39.0816 103.639 39.0816C102.09 38.9796 101.161 37.8571 101.161 36.5306ZM105.394 36.5306C105.394 35.5102 104.774 34.5918 103.639 34.5918C102.503 34.5918 101.884 35.5102 101.884 36.5306C101.884 37.551 102.503 38.4694 103.639 38.4694C104.774 38.4694 105.394 37.551 105.394 36.5306ZM108.8 34.0816H110.142C111.071 34.0816 111.794 34.3878 111.794 35.3061C111.794 35.9184 111.484 36.2245 110.865 36.3265C111.484 36.4286 111.897 36.8367 111.897 37.551C111.897 38.5714 111.071 38.8775 110.039 38.8775H108.697L108.8 34.0816ZM110.039 36.1225C110.761 36.1225 111.071 35.9184 111.071 35.3061C111.071 34.7959 110.761 34.5918 110.039 34.5918H109.419V36.1225H110.039ZM110.142 38.4694C110.968 38.4694 111.277 38.2653 111.277 37.6531C111.277 37.0408 110.968 36.7347 110.142 36.7347H109.419V38.4694H110.142V38.4694ZM114.684 34.0816H115.406V36.1225H118.09V34.0816H118.813V38.9796H118.09V36.7347H115.406V38.9796H114.684V34.0816ZM121.497 34.0816H122.116L123.974 38.9796H123.252L122.839 37.7551H120.671L120.258 38.8775H119.535L121.497 34.0816ZM122.632 37.2449L122.013 35.6122C121.91 35.2041 121.806 35 121.703 34.7959C121.703 35 121.6 35.3061 121.394 35.6122L120.774 37.2449H122.632ZM124.387 36.5306C124.387 35.2041 125.316 33.9796 126.865 33.9796C127.484 33.9796 127.897 34.0816 128.31 34.3878L128 34.898C127.69 34.6939 127.381 34.5918 126.968 34.5918C125.832 34.5918 125.213 35.5102 125.213 36.5306C125.213 37.551 125.832 38.4694 126.968 38.4694C127.484 38.4694 127.897 38.2653 128.103 38.0612L128.413 38.5714C128.206 38.7755 127.587 39.0816 126.865 39.0816C125.213 38.9796 124.387 37.7551 124.387 36.5306ZM130.168 34.5918H128.723V33.9796H132.232V34.5918H130.787V38.8775H130.065L130.168 34.5918ZM132.645 36.5306C132.645 35.2041 133.574 33.9796 135.123 33.9796C136.671 33.9796 137.6 35.102 137.6 36.5306C137.6 37.9592 136.671 39.0816 135.123 39.0816C133.574 39.0816 132.645 37.8571 132.645 36.5306ZM136.774 36.5306C136.774 35.5102 136.155 34.5918 135.019 34.5918C133.884 34.5918 133.265 35.5102 133.265 36.5306C133.265 37.551 133.884 38.4694 135.019 38.4694C136.155 38.4694 136.774 37.551 136.774 36.5306ZM138.116 38.3673C138.529 38.3673 138.735 37.9592 139.148 37.3469C139.355 37.0408 139.561 36.7347 139.768 36.6327C139.045 36.6327 138.426 36.1224 138.426 35.4082C138.426 34.5918 139.045 34.0816 140.077 34.0816H141.523V38.9796H140.8V36.7347H140.594C140.284 36.7347 140.077 37.1429 139.665 37.7551C139.045 38.6735 138.839 38.8775 138.426 38.8775H138.219L138.116 38.3673ZM140.8 36.2245V34.5918H140.077C139.355 34.5918 139.045 34.7959 139.045 35.4082C139.045 36.0204 139.355 36.2245 140.077 36.2245H140.8ZM148.748 38.9796H142.865V34.0816H143.587V38.3673H145.548V34.0816H146.271V38.3673H148.232V34.0816H148.955V38.3673H149.471L149.368 40H148.955L148.748 38.9796ZM150.4 34.0816H152.981V34.6939H151.019V36.1225H152.774V36.6327H151.123V38.3673H153.084V38.9796H150.4V34.0816ZM154.529 34.0816H155.148L156.284 37.3469C156.387 37.7551 156.49 37.9592 156.594 38.2653C156.594 38.0612 156.697 37.7551 156.903 37.3469L158.039 34.0816H158.658L159.381 38.9796H158.658L158.245 35.9184C158.245 35.6122 158.245 35.4082 158.142 35.2041C158.142 35.3061 158.039 35.6122 157.935 35.9184L156.8 38.9796H156.181L155.045 35.9184C154.942 35.6122 154.839 35.4082 154.839 35.2041C154.839 35.3061 154.839 35.6122 154.735 35.9184L154.323 38.9796H153.806L154.529 34.0816Z" fill="#CE253D"/>
</svg>
